<?xml version="1.0" encoding="utf-8"?>
<!-- Generator: Adobe Illustrator 21.0.2, SVG Export Plug-In . SVG Version: 6.00 Build 0)  -->
<svg version="1.1" id="Camada_1" xmlns="http://www.w3.org/2000/svg" xmlns:xlink="http://www.w3.org/1999/xlink" x="0px" y="0px"
	 viewBox="0 0 20 20" style="enable-background:new 0 0 20 20;" xml:space="preserve">
<style type="text/css">
	.st0{display:none;fill:#229322;}
	.st1{display:none;fill:#DFE3DF;}
	.st2{fill:#FFFFFF;}
	.st3{fill:#229322;}
</style>
<path class="st1" d="M11,1v9c0,0.5-0.4,1-1,1H1c0.5,4.5,4.3,8,9,8c5,0,9-4,9-9C19,5.3,15.5,1.5,11,1z M9,1C4.8,1.5,1.5,4.8,1,9h8V1z
	"/>
<path class="st2" d="M11,1v9c0,0.5-0.4,1-1,1H1c0.5,4.5,4.3,8,9,8c5,0,9-4,9-9C19,5.3,15.5,1.5,11,1z M9,1C4.8,1.5,1.5,4.8,1,9h8V1z
	"/>
</svg>
