<?xml version="1.0" encoding="utf-8"?>
<!-- Generator: Adobe Illustrator 21.0.2, SVG Export Plug-In . SVG Version: 6.00 Build 0)  -->
<svg version="1.1" id="Camada_1" xmlns="http://www.w3.org/2000/svg" xmlns:xlink="http://www.w3.org/1999/xlink" x="0px" y="0px"
	 viewBox="0 0 20 20" style="enable-background:new 0 0 20 20;" xml:space="preserve">
<style type="text/css">
	.st0{display:none;fill:#229322;}
	.st1{display:none;fill:#DFE3DF;}
	.st2{fill:#FFFFFF;}
	.st3{fill:#229322;}
</style>
<path class="st1" d="M8.1,11.1c-0.7,1.2-0.2,2.2,0.7,2.7c1,0.6,2,0.5,2.7-0.7c0.7-1.2,5-11.9,4.7-12.1C15.9,0.8,8.8,9.9,8.1,11.1z
	 M10,3.5c0.4,0,0.9,0,1.3,0.1c0.4-0.5,0.9-1.2,1.4-1.7c-0.9-0.2-1.8-0.4-2.7-0.4C4.4,1.5,0,6.2,0,12.3c0,0.4,0,0.7,0,1.1
	c0,0.6,0.5,1,1.1,0.9c0.6-0.1,1-0.5,0.9-1.1c0-0.3,0-0.6,0-0.9C2,7.4,5.5,3.5,10,3.5z M17.2,4.8c-0.3,0.8-0.6,1.5-0.8,2.2
	c1,1.5,1.6,3.3,1.6,5.3c0,0.3,0,0.6,0,0.9c0,0.6,0.4,1,0.9,1.1c0,0,0.1,0,0.1,0c0.5,0,0.9-0.4,1-0.9c0-0.4,0.1-0.7,0.1-1.1
	C20,9.3,18.9,6.7,17.2,4.8z"/>
<path class="st2" d="M8.1,11.1c-0.7,1.2-0.2,2.2,0.7,2.7c1,0.6,2,0.5,2.7-0.7c0.7-1.2,5-11.9,4.7-12.1C15.9,0.8,8.8,9.9,8.1,11.1z
	 M10,3.5c0.4,0,0.9,0,1.3,0.1c0.4-0.5,0.9-1.2,1.4-1.7c-0.9-0.2-1.8-0.4-2.7-0.4C4.4,1.5,0,6.2,0,12.3c0,0.4,0,0.7,0,1.1
	c0,0.6,0.5,1,1.1,0.9c0.6-0.1,1-0.5,0.9-1.1c0-0.3,0-0.6,0-0.9C2,7.4,5.5,3.5,10,3.5z M17.2,4.8c-0.3,0.8-0.6,1.5-0.8,2.2
	c1,1.5,1.6,3.3,1.6,5.3c0,0.3,0,0.6,0,0.9c0,0.6,0.4,1,0.9,1.1c0,0,0.1,0,0.1,0c0.5,0,0.9-0.4,1-0.9c0-0.4,0.1-0.7,0.1-1.1
	C20,9.3,18.9,6.7,17.2,4.8z"/>
</svg>
