<?xml version="1.0" encoding="utf-8"?>
<!-- Generator: Adobe Illustrator 21.1.0, SVG Export Plug-In . SVG Version: 6.00 Build 0)  -->
<svg version="1.1" id="Layer_1" xmlns="http://www.w3.org/2000/svg" xmlns:xlink="http://www.w3.org/1999/xlink" x="0px" y="0px"
	 width="90px" height="90px" viewBox="0 0 90 90" style="enable-background:new 0 0 90 90;" xml:space="preserve">
<style type="text/css">
	.st0{fill:#229322;}
	.st1{fill:#394452;}
	.st2{fill:#FFFFFF;}
	.st3{fill:none;stroke:#3C92CA;stroke-miterlimit:10;}
	.st4{fill:none;stroke:#2C2F33;stroke-miterlimit:10;}
</style>
<g>
	<g>
		<path class="st1" d="M44.4,90H18.6c0,0-0.1,0-0.1,0c-0.1,0-3.1-0.5-3.1-5.6c0-3.6,2.7-5.1,4.6-5.6v-24c0-0.1,0-0.1,0-0.2
			c1.5-8.3,11.4-10.7,11.9-10.8c0.1,0,0.1,0,0.2,0h12.1c0.1,0,0.1,0,0.2,0c10,2.4,12.3,11.4,12.4,11.7c0,0.1,0,0.1,0,0.2v5.8
			c0,0.5-0.4,0.9-0.9,0.9c-0.5,0-0.9-0.4-0.9-0.9v-5.7c-0.3-1-2.6-8.3-11-10.4H32.1c-1,0.3-9.2,2.6-10.5,9.4v24.7
			c0,0.4-0.3,0.8-0.8,0.9c-0.4,0-3.8,0.4-3.8,4c0,3.3,1.4,3.8,1.6,3.9h25.7c0.5,0,0.9,0.4,0.9,0.9S44.8,90,44.4,90z"/>
	</g>
	<g>
		<path class="st1" d="M44.4,43.4c-0.5,0-0.9-0.4-0.9-0.9v-1.7H32.8v1.7c0,0.5-0.4,0.9-0.9,0.9s-0.9-0.4-0.9-0.9v-2.6
			c0-0.5,0.4-0.9,0.9-0.9h12.5c0.5,0,0.9,0.4,0.9,0.9v2.6C45.3,43,44.9,43.4,44.4,43.4z"/>
	</g>
	<g>
		<path class="st1" d="M45.8,39.1c-0.2,0-0.3,0-0.4-0.1c-0.4-0.2-0.5-0.8-0.3-1.2c0.4-0.6,0.6-1.3,0.6-2c0-1.4-0.9-3.2-2-3.8
			c-0.5-0.3-0.9-0.3-1.4-0.1c-0.2,0.1-0.3,0.3-0.5,0.5c-0.6,0.7-1.5,1.7-3.5,1.6c-1.9-0.1-2.9-0.9-3.6-1.6c-0.3-0.2-0.5-0.4-0.7-0.5
			c-0.5-0.2-1-0.2-1.5,0.2c-1.1,0.7-1.9,2.3-1.9,3.7c0,0.7,0.2,1.4,0.6,2c0.2,0.4,0.1,0.9-0.3,1.2c-0.4,0.2-0.9,0.1-1.2-0.3
			c-0.5-0.9-0.8-1.9-0.8-2.9c0-2,1.1-4.2,2.7-5.2c1-0.6,2.1-0.7,3.2-0.2c0.4,0.2,0.8,0.5,1.1,0.8c0.6,0.6,1.2,1.1,2.5,1.1
			c1.2,0,1.7-0.5,2.2-1.1c0.3-0.3,0.6-0.6,1-0.8c1-0.5,2-0.5,3.1,0.1c1.6,0.9,2.9,3.3,2.9,5.3c0,1-0.3,2-0.8,2.9
			C46.4,38.9,46.1,39.1,45.8,39.1z"/>
	</g>
	<g>
		<path class="st0" d="M73.8,74.3h-4.1c-0.5,0-0.9-0.4-0.9-0.9s0.4-0.9,0.9-0.9h3.2V69H56.7v4.5c0,0.5-0.4,0.9-0.9,0.9
			c-0.5,0-0.9-0.4-0.9-0.9v-5.3c0-0.5,0.4-0.9,0.9-0.9h17.9c0.5,0,0.9,0.4,0.9,0.9v5.3C74.6,73.9,74.2,74.3,73.8,74.3z"/>
	</g>
	<g>
		<path class="st0" d="M69.3,82.2h-3.6c-0.5,0-0.9-0.4-0.9-0.9c0-0.5,0.4-0.9,0.9-0.9h2.8v-3.6H52.3v4.5c0,0.5-0.4,0.9-0.9,0.9
			c-0.5,0-0.9-0.4-0.9-0.9V76c0-0.5,0.4-0.9,0.9-0.9h17.9c0.5,0,0.9,0.4,0.9,0.9v5.3C70.2,81.8,69.8,82.2,69.3,82.2z"/>
	</g>
	<g>
		<path class="st0" d="M67,90H49.1c-0.5,0-0.9-0.4-0.9-0.9v-5.3c0-0.5,0.4-0.9,0.9-0.9H67c0.5,0,0.9,0.4,0.9,0.9v5.3
			C67.8,89.6,67.4,90,67,90z M49.9,88.3h16.2v-3.6H49.9V88.3z"/>
	</g>
	<g>
		<path class="st0" d="M42.3,65.4h-3.4v-0.6c0-0.6,0-1-0.1-1.2c-0.1-0.2-0.2-0.3-0.5-0.3c-0.2,0-0.4,0.1-0.5,0.2
			c-0.1,0.2-0.2,0.4-0.2,0.7c0,0.5,0.1,0.9,0.3,1.1c0.2,0.2,0.8,0.6,1.9,1.3c0.9,0.5,1.5,0.9,1.8,1.2c0.3,0.3,0.6,0.7,0.8,1.2
			c0.2,0.5,0.3,1.2,0.3,1.9c0,1.2-0.3,2.2-0.9,2.9c-0.6,0.7-1.5,1.1-2.7,1.3v1.3h-1.6v-1.3c-0.9-0.1-1.7-0.4-2.4-1.1
			c-0.7-0.6-1-1.7-1-3.2v-0.7h3.4v0.8c0,0.9,0,1.5,0.1,1.7c0.1,0.2,0.2,0.3,0.5,0.3c0.2,0,0.4-0.1,0.5-0.2c0.1-0.2,0.2-0.4,0.2-0.7
			c0-0.8-0.1-1.3-0.2-1.7c-0.1-0.3-0.5-0.7-1.1-1.1c-1.1-0.7-1.8-1.1-2.1-1.5c-0.4-0.3-0.7-0.7-1-1.3c-0.3-0.6-0.4-1.2-0.4-1.9
			c0-1,0.3-1.8,0.9-2.4c0.6-0.6,1.5-0.9,2.6-1.1v-1.1h1.6v1.1c1.1,0.1,1.9,0.5,2.4,1.1c0.5,0.6,0.8,1.4,0.8,2.4
			C42.3,64.9,42.3,65.1,42.3,65.4z"/>
	</g>
</g>
</svg>
