<svg xmlns="http://www.w3.org/2000/svg" xmlns:xlink="http://www.w3.org/1999/xlink" version="1.1" id="Layer_1" x="0px" y="0px" width="120" height="90" viewBox="0 0 120 90" style="enable-background:new 0 0 120 90;" xml:space="preserve">
<style type="text/css">
	.st0{fill:#229322;}
	.st1{fill:#394452;}
</style>
<g>
	<path class="st1" d="M92,8.7C92,8.6,92,8.6,92,8.7c0-0.1,0-0.1,0-0.2c0,0,0,0,0,0c0,0,0,0,0-0.1c0,0,0-0.1-0.1-0.1   c0,0,0-0.1-0.1-0.1c0,0-0.1,0-0.1-0.1c0,0-0.1-0.1-0.1-0.1c0,0,0,0-0.1-0.1c0,0,0,0,0,0c0,0-0.1,0-0.1,0c0,0-0.1,0-0.1,0   c0,0-0.1,0-0.1,0c0,0-0.1,0-0.1,0c0,0,0,0-0.1,0c0,0,0,0-0.1,0c0,0-0.1,0-0.1,0c0,0,0,0,0,0L76,12.7c-0.5,0.1-0.7,0.6-0.6,1.1   c0.1,0.4,0.5,0.6,0.8,0.6c0.1,0,0.2,0,0.3,0l12.7-4.1C75.2,34,56.4,44.5,42.9,49.3c-15,5.3-26.8,4.6-27,4.6c-0.5,0-0.9,0.3-0.9,0.8   c0,0.5,0.3,0.9,0.8,0.9c0.1,0,0.7,0,1.8,0c3.9,0,13.7-0.5,25.7-4.7c13.7-4.8,32.8-15.5,47.1-39.4l1.1,12.2c0,0.5,0.4,0.8,0.9,0.8   c0,0,0.1,0,0.1,0c0.5,0,0.8-0.5,0.8-0.9L92,8.7z"/>
	<g>
		<path class="st1" d="M30.4,80.9H16.5c-0.5,0-0.9-0.4-0.9-0.9V64c0-0.5,0.4-0.9,0.9-0.9h13.9c0.5,0,0.9,0.4,0.9,0.9v16    C31.2,80.5,30.9,80.9,30.4,80.9z M17.4,79.1h12.1V64.8H17.4V79.1z"/>
	</g>
	<g>
		<path class="st1" d="M51.6,80.9H37.7c-0.5,0-0.9-0.4-0.9-0.9V59.9c0-0.5,0.4-0.9,0.9-0.9h13.9c0.5,0,0.9,0.4,0.9,0.9V80    C52.5,80.5,52.1,80.9,51.6,80.9z M38.6,79.1h12.1V60.7H38.6V79.1z"/>
	</g>
	<g>
		<path class="st1" d="M72.9,80.9H59c-0.5,0-0.9-0.4-0.9-0.9V52.2c0-0.5,0.4-0.9,0.9-0.9h13.9c0.5,0,0.9,0.4,0.9,0.9V80    C73.7,80.5,73.4,80.9,72.9,80.9z M59.9,79.1H72v-26H59.9V79.1z"/>
	</g>
	<g>
		<rect x="80.2" y="38" class="st0" width="13.9" height="42"/>
		<path class="st1" d="M94.1,80.9H80.2c-0.5,0-0.9-0.4-0.9-0.9V38c0-0.5,0.4-0.9,0.9-0.9h13.9c0.5,0,0.9,0.4,0.9,0.9v42    C95,80.5,94.6,80.9,94.1,80.9z M81.1,79.1h12.1V38.9H81.1V79.1z"/>
	</g>
</g>
</svg>