<svg xmlns="http://www.w3.org/2000/svg" xmlns:xlink="http://www.w3.org/1999/xlink" version="1.1" id="Layer_1" x="0px" y="0px" width="90" height="90" viewBox="0 0 90 90" style="enable-background:new 0 0 90 90;" xml:space="preserve">
<style type="text/css">
	.st0{fill:#229322;}
	.st1{fill:#394452;}
	.st2{fill:#FFFFFF;}
	.st3{fill:none;stroke:#3C92CA;stroke-miterlimit:10;}
	.st4{fill:none;stroke:#2C2F33;stroke-miterlimit:10;}
</style>
<g>
	<g>
		<path class="st0" d="M29.4,80.2c-3.8,0-7.3-2.4-8.6-6.1c-1.7-4.8,0.8-10,5.6-11.6c4.8-1.7,10,0.8,11.6,5.6l0,0    c1.7,4.7-0.8,10-5.6,11.6C31.4,80,30.4,80.2,29.4,80.2z M29.4,63.3c-0.8,0-1.7,0.1-2.5,0.4c-4,1.4-6.2,5.8-4.7,9.9    c1.4,4,5.8,6.2,9.9,4.7c4-1.4,6.2-5.8,4.7-9.9l0,0C35.6,65.3,32.6,63.3,29.4,63.3z"/>
	</g>
	<path class="st0" d="M45.6,69.6L43,68.3c-0.1-0.6-0.3-1.3-0.5-1.9c-0.1-0.3-0.2-0.6-0.3-0.9l1.3-2.8c0.1-0.3,0.1-0.5-0.1-0.8   l-3-3.4c-0.2-0.2-0.5-0.3-0.8-0.2l-2.7,1c-0.7-0.5-1.5-0.9-2.3-1.2l-1-3c-0.1-0.3-0.3-0.4-0.6-0.5l-4.6-0.3c-0.3,0-0.5,0.1-0.7,0.4   l-1.4,2.7c-0.5,0.1-1,0.3-1.5,0.4c-0.3,0.1-0.5,0.2-0.8,0.3l-3-1.4c-0.2-0.1-0.5-0.1-0.8,0.1l-3.5,3c-0.2,0.2-0.3,0.5-0.2,0.8   l1.1,2.9c-0.5,0.8-0.9,1.6-1.2,2.4l-2.8,1c-0.3,0.1-0.4,0.3-0.5,0.6l-0.4,4.2c0,0.3,0.1,0.6,0.4,0.7l2.7,1.4   c0.1,0.6,0.3,1.2,0.5,1.7c0.1,0.3,0.2,0.6,0.3,0.9l-1.4,2.7c-0.1,0.3-0.1,0.6,0.1,0.8l3,3.3c0.1,0.1,0.3,0.2,0.5,0.2   c0.1,0,0.2,0,0.2,0l2.6-0.9c0.8,0.5,1.6,1,2.5,1.3l1,2.8c0.1,0.3,0.3,0.4,0.6,0.5l4.6,0.4c0,0,0,0,0.1,0c0.3,0,0.5-0.2,0.6-0.4   l1.2-2.5c0.6-0.1,1.2-0.3,1.8-0.5c0.3-0.1,0.6-0.2,0.9-0.3l2.8,1.3c0.1,0,0.2,0.1,0.3,0.1c0.2,0,0.3-0.1,0.5-0.2l3.3-2.9   c0.2-0.2,0.3-0.5,0.2-0.7l-0.9-2.6c0.6-0.8,1-1.7,1.4-2.7l2.9-1c0.3-0.1,0.4-0.3,0.5-0.6l0.3-4.2C46,70,45.8,69.7,45.6,69.6z    M44.3,73.9l-2.7,1c0,0,0,0,0,0c0,0,0,0,0,0c0,0-0.1,0-0.1,0.1c0,0-0.1,0-0.1,0.1c0,0-0.1,0.1-0.1,0.1c0,0,0,0.1-0.1,0.1   c0,0,0,0,0,0c-0.4,1.1-0.9,2.1-1.5,3c0,0,0,0,0,0.1c0,0,0,0.1-0.1,0.1c0,0,0,0.1,0,0.1c0,0,0,0.1,0,0.1c0,0.1,0,0.1,0,0.2   c0,0,0,0,0,0l0.9,2.5l-2.6,2.3l-2.7-1.2c0,0,0,0,0,0c-0.1,0-0.1,0-0.2-0.1c0,0,0,0,0,0c-0.1,0-0.2,0-0.3,0.1   c-0.3,0.1-0.7,0.3-1,0.4c-0.6,0.2-1.3,0.4-2,0.5c0,0,0,0-0.1,0c0,0-0.1,0-0.1,0c0,0-0.1,0-0.1,0.1c0,0-0.1,0.1-0.1,0.1   c0,0-0.1,0.1-0.1,0.1c0,0,0,0,0,0l-1.1,2.4l-3.6-0.3l-0.9-2.6c0,0,0,0,0,0c0,0,0-0.1-0.1-0.1c0,0,0-0.1-0.1-0.1c0,0-0.1,0-0.1-0.1   c0,0-0.1-0.1-0.1-0.1c0,0,0,0,0,0c-1-0.4-1.9-0.9-2.8-1.5c0,0,0,0-0.1,0c0,0-0.1,0-0.1-0.1c0,0-0.1,0-0.1,0c0,0-0.1,0-0.1,0   c0,0-0.1,0-0.1,0c0,0,0,0-0.1,0L19,82l-2.4-2.6l1.4-2.6c0,0,0,0,0,0c0,0,0-0.1,0-0.2c0,0,0-0.1,0-0.1c0,0,0-0.1,0-0.1   c0-0.1,0-0.1,0-0.2c0,0,0,0,0,0c-0.2-0.4-0.3-0.7-0.4-1.1c-0.2-0.6-0.4-1.2-0.5-1.9c0,0,0,0,0,0c0-0.1,0-0.1-0.1-0.1   c0,0,0-0.1-0.1-0.1c0,0-0.1-0.1-0.1-0.1c0,0-0.1-0.1-0.1-0.1c0,0,0,0,0,0l-2.6-1.4l0.3-3.3l2.7-0.9c0,0,0,0,0,0l0,0c0,0,0,0,0,0   c0.1,0,0.2-0.1,0.2-0.1c0,0,0,0,0,0c0,0,0.1-0.1,0.1-0.2c0,0,0,0,0-0.1c0,0,0,0,0,0c0.3-1,0.8-1.9,1.4-2.7c0,0,0,0,0,0   c0,0,0-0.1,0.1-0.1c0,0,0-0.1,0-0.1c0,0,0-0.1,0-0.1c0,0,0-0.1,0-0.1c0,0,0,0,0-0.1l-1-2.8l2.8-2.4l2.9,1.4c0,0,0,0,0,0   c0.1,0,0.1,0,0.2,0c0,0,0,0,0,0c0,0,0,0,0,0c0,0,0.1,0,0.1,0c0.1,0,0.1,0,0.2,0c0,0,0,0,0,0c0.3-0.1,0.6-0.3,1-0.4   c0.5-0.2,1.1-0.3,1.6-0.5c0,0,0,0,0,0c0.1,0,0.1,0,0.2-0.1c0,0,0,0,0.1,0c0,0,0.1-0.1,0.1-0.1c0,0,0-0.1,0.1-0.1c0,0,0,0,0,0   l1.4-2.6l3.7,0.3l1,2.8c0,0,0,0,0,0c0,0,0,0,0,0.1c0,0,0.1,0.1,0.1,0.1c0,0,0,0,0.1,0.1c0,0,0.1,0.1,0.2,0.1c0,0,0,0,0,0   c0.9,0.3,1.8,0.8,2.6,1.4c0,0,0,0,0.1,0c0,0,0,0,0.1,0c0.1,0,0.1,0,0.2,0c0,0,0,0,0.1,0c0,0,0,0,0,0c0.1,0,0.1,0,0.2,0c0,0,0,0,0,0   l2.6-0.9l2.4,2.7l-1.3,2.7c0,0,0,0,0,0c0,0,0,0.1,0,0.1c0,0,0,0.1,0,0.1c0,0,0,0.1,0,0.1c0,0.1,0,0.1,0,0.2c0,0,0,0,0,0   c0.2,0.3,0.3,0.7,0.4,1c0.2,0.7,0.4,1.3,0.5,2c0,0,0,0,0,0.1c0,0,0,0.1,0,0.1c0,0,0,0.1,0.1,0.1c0,0,0,0.1,0.1,0.1   c0,0,0.1,0.1,0.1,0.1c0,0,0,0,0.1,0l2.5,1.2L44.3,73.9z"/>
	<g>
		<path class="st1" d="M48,76.4c-0.4,0-0.7-0.3-0.7-0.7c0-0.4,0.3-0.7,0.7-0.7c7.2-0.2,13.2-5.5,14.2-12.6c0.6-3.9-0.4-7.8-2.8-11    c-2.4-3.2-5.8-5.2-9.7-5.8c-6-0.9-11.8,1.9-14.9,7.1c-0.2,0.3-0.6,0.4-1,0.2c-0.3-0.2-0.4-0.6-0.2-1c3.4-5.7,9.7-8.7,16.3-7.8    c4.3,0.6,8.1,2.9,10.6,6.4c2.6,3.5,3.7,7.7,3,12C62.4,70.3,55.8,76.1,48,76.4C48,76.4,48,76.4,48,76.4z"/>
	</g>
	<path class="st1" d="M72.3,61.9l4.7-3.6c0.2-0.2,0.3-0.5,0.3-0.7l-2-8.2c-0.1-0.3-0.3-0.5-0.6-0.5l-5.5-0.8c-0.8-1.5-1.8-2.9-3-4.2   l0.9-6c0-0.3-0.1-0.5-0.3-0.7l-7.2-4.4c-0.2-0.1-0.5-0.1-0.8,0l-4.8,3.4c-1-0.3-2-0.5-3-0.6c-0.6-0.1-1.1-0.1-1.8-0.2l-3.8-5.1   c-0.2-0.2-0.4-0.3-0.7-0.3l-8.2,1.9c-0.3,0.1-0.5,0.3-0.5,0.6l-0.7,5.9c-1.6,0.9-3.1,2-4.4,3.1l-5.7-0.8c-0.3,0-0.5,0.1-0.7,0.3   l-4.3,6.4c-0.2,0.2-0.2,0.5,0,0.8l3.4,4.9c-0.2,0.6-0.3,1.2-0.5,1.9c-0.1,0.4,0.2,0.7,0.5,0.8c0,0,0.1,0,0.1,0   c0.3,0,0.6-0.2,0.7-0.6c0.2-0.7,0.3-1.4,0.5-2.1c0,0,0,0,0,0c0,0,0-0.1,0-0.1c0,0,0-0.1,0-0.1c0,0,0-0.1,0-0.1c0,0,0-0.1,0-0.1   c0,0,0,0,0,0l-3.3-4.7l3.8-5.7L31,43c0,0,0,0,0,0c0,0,0,0,0.1,0c0,0,0.1,0,0.1,0c0,0,0.1,0,0.1,0c0.1,0,0.1,0,0.2-0.1   c0,0,0.1,0,0.1,0c0,0,0,0,0,0c1.4-1.3,3-2.4,4.7-3.4c0,0,0,0,0,0c0.1,0,0.1-0.1,0.1-0.1c0,0,0,0,0.1-0.1c0,0,0.1-0.1,0.1-0.1   c0,0,0-0.1,0-0.1c0,0,0,0,0-0.1l0.7-5.8l7.3-1.7l3.7,4.9c0,0,0,0,0,0c0,0,0.1,0.1,0.1,0.1c0,0,0.1,0.1,0.1,0.1c0,0,0.1,0,0.1,0   c0,0,0.1,0,0.1,0c0,0,0,0,0,0c0.7,0.1,1.4,0.1,2,0.2c1,0.2,2.1,0.4,3.1,0.7c0,0,0,0,0,0c0,0,0.1,0,0.1,0c0,0,0.1,0,0.1,0   c0,0,0.1,0,0.1,0c0,0,0.1,0,0.1,0c0.1,0,0.1,0,0.2-0.1c0,0,0,0,0,0l4.7-3.3l6.4,3.9L64.9,44c0,0,0,0,0,0c0,0,0,0.1,0,0.1   c0,0,0,0.1,0,0.1c0,0,0,0.1,0,0.1c0,0,0,0.1,0.1,0.1c0,0,0,0,0,0c1.2,1.4,2.3,2.9,3.2,4.5c0,0,0,0,0,0.1c0,0,0,0,0,0.1   c0,0.1,0.1,0.1,0.2,0.1c0,0,0,0,0,0c0.1,0,0.1,0.1,0.2,0.1c0,0,0,0,0,0l5.4,0.8l1.8,7.3L71.2,61c0,0,0,0,0,0c0,0-0.1,0.1-0.1,0.1   c0,0,0,0.1-0.1,0.1c0,0,0,0.1,0,0.1c0,0,0,0.1,0,0.1c0,0,0,0,0,0c0,0.7-0.1,1.4-0.2,2.1c-0.2,1.3-0.5,2.6-0.9,3.8c0,0,0,0,0,0.1   c0,0,0,0.1,0,0.1c0,0,0,0.1,0,0.1c0,0,0,0.1,0,0.1c0,0,0,0.1,0.1,0.1c0,0,0,0,0,0.1l3.3,4.3l-3.6,5.7L64,77.3c0,0,0,0,0,0   c-0.2,0-0.3,0-0.5,0.1c0,0,0,0,0,0c0,0,0,0,0,0c-1.6,1.4-3.3,2.7-5.2,3.6c0,0,0,0-0.1,0c0,0-0.1,0-0.1,0.1c0,0-0.1,0.1-0.1,0.1   c0,0,0,0.1,0,0.1c0,0.1,0,0.1-0.1,0.2c0,0,0,0,0,0l-0.8,5.1l-6.9,1.8L46.7,84c0,0,0,0,0,0c-0.1-0.2-0.3-0.3-0.5-0.3   c-0.7,0-1.4-0.1-2.1-0.2c-0.4-0.1-0.9-0.1-1.3-0.2c-0.4-0.1-0.7,0.2-0.8,0.5c-0.1,0.4,0.2,0.7,0.5,0.8c0.4,0.1,0.9,0.2,1.3,0.2   c0.6,0.1,1.3,0.2,1.9,0.2l3.6,4.7c0.1,0.2,0.3,0.3,0.6,0.3c0.1,0,0.1,0,0.2,0l7.8-2c0.3-0.1,0.5-0.3,0.5-0.6l0.8-5.3   c1.8-0.9,3.4-2.1,4.9-3.4l5.8,0.8c0,0,0.1,0,0.1,0c0.2,0,0.5-0.1,0.6-0.3l4.1-6.5c0.2-0.2,0.1-0.6,0-0.8l-3.4-4.4   c0.4-1.2,0.6-2.4,0.8-3.7C72.2,63.1,72.3,62.5,72.3,61.9z"/>
</g>
</svg>