<svg xmlns="http://www.w3.org/2000/svg" xmlns:xlink="http://www.w3.org/1999/xlink" version="1.1" id="Layer_1" x="0px" y="0px" width="120" height="90" viewBox="0 0 120 90" style="enable-background:new 0 0 120 90;" xml:space="preserve">
<style type="text/css">
	.st0{fill:#229322;}
	.st1{fill:#394452;}
</style>
<g>
	<g>
		<path class="st1" d="M88.6,71.9c-0.5,0-0.9-0.4-0.9-0.9v-8.4c0-1.2-0.5-2.3-1.4-3c-7.4-6.1-15.5-10.2-17-10.9    c-0.9-0.4-1.5-1.3-1.5-2.3V34.5c0-0.7,0.3-1.3,0.9-1.7c1-0.6,1.5-1.7,1.5-2.9V17.7c0-4.9-4-9-9-9h-2.6c-4.9,0-9,4-9,9v12.2    c0,1.2,0.6,2.2,1.6,2.9c0.6,0.4,0.9,1,0.9,1.7v11.8c0,1-0.6,1.9-1.5,2.3c-1.5,0.7-9.5,4.8-17,10.9c-0.9,0.7-1.4,1.8-1.4,3V71    c0,0.5-0.4,0.9-0.9,0.9c-0.5,0-0.9-0.4-0.9-0.9v-8.4c0-1.7,0.8-3.4,2.1-4.4c7.6-6.3,15.8-10.4,17.4-11.2c0.3-0.1,0.4-0.4,0.4-0.7    V34.5c0-0.1,0-0.1-0.1-0.2c-1.5-1-2.4-2.7-2.4-4.4V17.7c0-6,4.9-10.8,10.8-10.8h2.6c6,0,10.8,4.9,10.8,10.8v12.2    c0,1.8-0.9,3.5-2.4,4.4c-0.1,0-0.1,0.1-0.1,0.2v11.8c0,0.3,0.2,0.5,0.4,0.7c1.6,0.8,9.8,4.9,17.4,11.2c1.3,1.1,2.1,2.7,2.1,4.4V71    C89.6,71.5,89.2,71.9,88.6,71.9z"/>
	</g>
	<g>
		<path class="st0" d="M118.1,71.9c-0.5,0-0.9-0.4-0.9-0.9v-6.8c0-0.8-0.4-1.6-1-2.1c-6.2-5.1-13-8.5-13.8-8.8    c-0.9-0.4-1.4-1.3-1.4-2.2v-9.6c0-0.7,0.3-1.3,0.9-1.7c0.7-0.5,1.1-1.2,1.1-2v-10c0-3.8-3.1-6.9-6.9-6.9h-2.1    c-3.8,0-6.9,3.1-6.9,6.9v10c0,0.8,0.4,1.6,1.1,2c0.6,0.4,0.9,1,0.9,1.7v7.9c0,0.5-0.4,0.9-0.9,0.9c-0.5,0-0.9-0.4-0.9-0.9v-7.9    c0-0.1,0-0.1-0.1-0.2c-1.2-0.8-1.9-2.1-1.9-3.6v-10c0-4.8,3.9-8.8,8.8-8.8h2.1c4.8,0,8.8,3.9,8.8,8.8v10c0,1.4-0.7,2.8-1.9,3.6    c-0.1,0-0.1,0.1-0.1,0.2v9.6c0,0.2,0.1,0.5,0.4,0.6c1.3,0.6,7.9,3.9,14.1,9.1c1.1,0.9,1.7,2.2,1.7,3.6V71    C119,71.5,118.6,71.9,118.1,71.9z"/>
	</g>
	<g>
		<path class="st0" d="M1.9,71.9C1.4,71.9,1,71.5,1,71v-6.8c0-1.4,0.6-2.7,1.7-3.6c6.2-5.1,12.9-8.5,14.1-9.1    c0.2-0.1,0.4-0.3,0.4-0.6v-9.6c0-0.1,0-0.1-0.1-0.2c-1.2-0.8-1.9-2.1-1.9-3.6v-10c0-4.8,3.9-8.8,8.8-8.8h2.1    c4.8,0,8.8,3.9,8.8,8.8v10c0,1.4-0.7,2.8-1.9,3.6c-0.1,0-0.1,0.1-0.1,0.2v7.9c0,0.5-0.4,0.9-0.9,0.9c-0.5,0-0.9-0.4-0.9-0.9v-7.9    c0-0.7,0.3-1.3,0.9-1.7c0.7-0.5,1.1-1.2,1.1-2v-10c0-3.8-3.1-6.9-6.9-6.9H24c-3.8,0-6.9,3.1-6.9,6.9v10c0,0.8,0.4,1.6,1.1,2    c0.6,0.4,0.9,1,0.9,1.7v9.6c0,1-0.5,1.8-1.4,2.2c-0.8,0.4-7.6,3.7-13.8,8.8c-0.6,0.5-1,1.3-1,2.1V71C2.9,71.5,2.4,71.9,1.9,71.9z"/>
	</g>
	<g>
		<path class="st1" d="M59.8,90c-0.5,0-1-0.2-1.3-0.6l-3-3.5c-0.3-0.4-0.5-0.9-0.5-1.5L56,56.1c-0.6-1.1-1-2.3-1-3.6    c0-0.1,0-0.3,0.1-0.4c0.1-0.2,1-1.9,2.6-2.4c0.8-0.3,1.7-0.2,2.6,0.3c0.4,0.3,0.6,0.8,0.4,1.3c-0.3,0.4-0.8,0.6-1.3,0.4    c-0.4-0.2-0.8-0.3-1.1-0.2c-0.6,0.2-1.1,0.9-1.4,1.3c0,1,0.3,1.9,0.8,2.7c0.1,0.2,0.2,0.3,0.1,0.5l-0.9,28.6c0,0.1,0,0.2,0,0.2    l2.8,3.4l2.9-3.4c0,0,0.1-0.1,0.1-0.2l-1-28.2c0-0.2,0.1-0.4,0.2-0.6c0.6-0.8,1-1.9,1-3.1c0-0.5,0.4-0.9,0.9-0.9    c0.5,0,0.9,0.4,0.9,0.9c0,1.5-0.4,2.8-1.1,3.9l1,27.9c0,0.5-0.2,1.1-0.5,1.5l-3,3.6C60.8,89.8,60.3,90,59.8,90z"/>
	</g>
</g>
</svg>