<svg xmlns="http://www.w3.org/2000/svg" xmlns:xlink="http://www.w3.org/1999/xlink" version="1.1" id="Layer_1" x="0px" y="0px" width="90" height="90" viewBox="0 0 90 90" style="enable-background:new 0 0 90 90;" xml:space="preserve">
<style type="text/css">
	.st0{fill:#229322;}
	.st1{fill:#394452;}
	.st2{fill:#FFFFFF;}
	.st3{fill:none;stroke:#3C92CA;stroke-miterlimit:10;}
	.st4{fill:none;stroke:#2C2F33;stroke-miterlimit:10;}
</style>
<g>
	<g>
		<path class="st1" d="M64.9,90H25.1c-0.3,0-0.6-0.3-0.6-0.6V33.1c0-0.3,0.3-0.6,0.6-0.6H30c0.3,0,0.6,0.3,0.6,0.6    c0,0.3-0.3,0.6-0.6,0.6h-4.3v55.1h38.6V33.7H60c-0.3,0-0.6-0.3-0.6-0.6c0-0.3,0.3-0.6,0.6-0.6h4.9c0.3,0,0.6,0.3,0.6,0.6v56.3    C65.5,89.7,65.2,90,64.9,90z"/>
	</g>
	<g>
		<path class="st1" d="M47.5,31.9c0,0.4-0.1,0.8-0.3,1.2c-0.4,0.8-1.3,1.4-2.3,1.4c-1,0-1.8-0.6-2.3-1.4c-0.2-0.3-0.3-0.7-0.3-1.2    c0-1.4,1.1-2.5,2.5-2.5C46.4,29.4,47.5,30.5,47.5,31.9"/>
	</g>
	<g>
		<path class="st1" d="M50.4,32.5c-0.3,0-0.6-0.3-0.6-0.6c0-2.6-2.1-4.8-4.8-4.8s-4.8,2.1-4.8,4.8c0,0.3-0.3,0.6-0.6,0.6    c-0.3,0-0.6-0.3-0.6-0.6c0-3.3,2.7-5.9,5.9-5.9c3.3,0,5.9,2.7,5.9,5.9C50.9,32.3,50.7,32.5,50.4,32.5z"/>
	</g>
	<g>
		<path class="st1" d="M56.6,39.7H33.4c-0.3,0-0.6-0.3-0.6-0.6v-7.2c0-0.3,0.3-0.6,0.6-0.6h4.5c0.3,0,0.6,0.3,0.6,0.6    c0,0.3-0.3,0.6-0.6,0.6H34v6h22v-6h-3.9c-0.3,0-0.6-0.3-0.6-0.6c0-0.3,0.3-0.6,0.6-0.6h4.5c0.3,0,0.6,0.3,0.6,0.6v7.2    C57.2,39.4,56.9,39.7,56.6,39.7z"/>
	</g>
	<path class="st1" d="M60.3,37.2h-1.7c-0.3,0-0.6,0.3-0.6,0.6c0,0.3,0.3,0.6,0.6,0.6h1.1v38.5l-7.3,7.2H30.2V38.4h1.1   c0.3,0,0.6-0.3,0.6-0.6c0-0.3-0.3-0.6-0.6-0.6h-1.7c-0.3,0-0.6,0.3-0.6,0.6v46.9c0,0.3,0.3,0.6,0.6,0.6h23c0,0,0,0,0,0   c0.1,0,0.1,0,0.2,0c0.1,0,0.1-0.1,0.1-0.1c0,0,0,0,0,0l0,0c0,0,0,0,0,0l7.7-7.5c0,0,0,0,0,0c0.1-0.1,0.1-0.2,0.2-0.3   c0,0,0-0.1,0-0.1c0,0,0,0,0,0V37.8C60.9,37.5,60.7,37.2,60.3,37.2z"/>
	<g>
		<path class="st1" d="M52.7,82.7c-0.3,0-0.6-0.3-0.6-0.6v-4.9c0-0.3,0.3-0.6,0.6-0.6h5.4c0.3,0,0.6,0.3,0.6,0.6s-0.3,0.6-0.6,0.6    h-4.8v4.3C53.2,82.4,53,82.7,52.7,82.7z"/>
	</g>
	<g>
		<path class="st1" d="M55.1,49.3H41c-0.3,0-0.6-0.3-0.6-0.6c0-0.3,0.3-0.6,0.6-0.6h14.1c0.3,0,0.6,0.3,0.6,0.6    C55.7,49.1,55.4,49.3,55.1,49.3z"/>
	</g>
	<g>
		<path class="st1" d="M55.1,56.2H41c-0.3,0-0.6-0.3-0.6-0.6c0-0.3,0.3-0.6,0.6-0.6h14.1c0.3,0,0.6,0.3,0.6,0.6    C55.7,56,55.4,56.2,55.1,56.2z"/>
	</g>
	<g>
		<path class="st1" d="M55.1,63.2H41c-0.3,0-0.6-0.3-0.6-0.6s0.3-0.6,0.6-0.6h14.1c0.3,0,0.6,0.3,0.6,0.6S55.4,63.2,55.1,63.2z"/>
	</g>
	<g>
		<path class="st1" d="M55.1,69.7H41c-0.3,0-0.6-0.3-0.6-0.6c0-0.3,0.3-0.6,0.6-0.6h14.1c0.3,0,0.6,0.3,0.6,0.6    C55.7,69.5,55.4,69.7,55.1,69.7z"/>
	</g>
	<g>
		<path class="st0" d="M36.3,64.6c-0.2,0-0.3-0.1-0.4-0.2l-1.4-1.4c-0.2-0.2-0.2-0.6,0-0.8c0.2-0.2,0.6-0.2,0.8,0l1.4,1.4    c0.2,0.2,0.2,0.6,0,0.8C36.6,64.6,36.4,64.6,36.3,64.6z"/>
	</g>
	<g>
		<path class="st0" d="M36.3,64.6c-0.2,0-0.3-0.1-0.4-0.2c-0.2-0.2-0.2-0.6,0-0.8l2.8-2.8c0.2-0.2,0.6-0.2,0.8,0    c0.2,0.2,0.2,0.6,0,0.8l-2.8,2.8C36.6,64.6,36.4,64.6,36.3,64.6z"/>
	</g>
	<g>
		<path class="st0" d="M36.3,57.6c-0.2,0-0.3-0.1-0.4-0.2l-1.4-1.4c-0.2-0.2-0.2-0.6,0-0.8c0.2-0.2,0.6-0.2,0.8,0l1.4,1.4    c0.2,0.2,0.2,0.6,0,0.8C36.6,57.6,36.4,57.6,36.3,57.6z"/>
	</g>
	<g>
		<path class="st0" d="M36.3,57.6c-0.2,0-0.3-0.1-0.4-0.2c-0.2-0.2-0.2-0.6,0-0.8l2.8-2.8c0.2-0.2,0.6-0.2,0.8,0    c0.2,0.2,0.2,0.6,0,0.8l-2.8,2.8C36.6,57.6,36.4,57.6,36.3,57.6z"/>
	</g>
	<g>
		<path class="st0" d="M36.3,50.7c-0.2,0-0.3-0.1-0.4-0.2l-1.4-1.4c-0.2-0.2-0.2-0.6,0-0.8c0.2-0.2,0.6-0.2,0.8,0l1.4,1.4    c0.2,0.2,0.2,0.6,0,0.8C36.6,50.6,36.4,50.7,36.3,50.7z"/>
	</g>
	<g>
		<path class="st0" d="M36.3,50.7c-0.2,0-0.3-0.1-0.4-0.2c-0.2-0.2-0.2-0.6,0-0.8l2.8-2.8c0.2-0.2,0.6-0.2,0.8,0    c0.2,0.2,0.2,0.6,0,0.8l-2.8,2.8C36.6,50.6,36.4,50.7,36.3,50.7z"/>
	</g>
	<g>
		<path class="st0" d="M36.3,71.1c-0.2,0-0.3-0.1-0.4-0.2l-1.4-1.4c-0.2-0.2-0.2-0.6,0-0.8c0.2-0.2,0.6-0.2,0.8,0l1.4,1.4    c0.2,0.2,0.2,0.6,0,0.8C36.6,71.1,36.4,71.1,36.3,71.1z"/>
	</g>
	<g>
		<path class="st0" d="M36.3,71.1c-0.2,0-0.3-0.1-0.4-0.2c-0.2-0.2-0.2-0.6,0-0.8l2.8-2.8c0.2-0.2,0.6-0.2,0.8,0    c0.2,0.2,0.2,0.6,0,0.8l-2.8,2.8C36.6,71.1,36.4,71.1,36.3,71.1z"/>
	</g>
</g>
</svg>