<svg xmlns="http://www.w3.org/2000/svg" xmlns:xlink="http://www.w3.org/1999/xlink" version="1.1" id="Layer_1" x="0px" y="0px" width="90" height="90" viewBox="0 0 90 90" style="enable-background:new 0 0 90 90;" xml:space="preserve">
<style type="text/css">
	.st0{fill:#229322;}
	.st1{fill:#394452;}
	.st2{fill:#FFFFFF;}
	.st3{fill:none;stroke:#3C92CA;stroke-miterlimit:10;}
	.st4{fill:none;stroke:#2C2F33;stroke-miterlimit:10;}
</style>
<g>
	<g>
		<polyline class="st0" points="36.6,89.2 36.6,74.1 46.5,74.1 46.5,89.2   "/>
	</g>
	<g>
		<path class="st1" d="M62.2,48.2c-0.4,0-0.8-0.4-0.8-0.8v-1.9h-6c-0.4,0-0.8-0.4-0.8-0.8c0-0.4,0.4-0.8,0.8-0.8h6.8    c0.4,0,0.8,0.4,0.8,0.8v2.7C63,47.9,62.6,48.2,62.2,48.2z"/>
	</g>
	<g>
		<path class="st1" d="M49.1,37.6c-0.4,0-0.8-0.4-0.8-0.8v-2.3H34.8v2.3c0,0.4-0.4,0.8-0.8,0.8s-0.8-0.4-0.8-0.8v-3.1    c0-0.4,0.4-0.8,0.8-0.8h15.1c0.4,0,0.8,0.4,0.8,0.8v3.1C49.9,37.2,49.5,37.6,49.1,37.6z"/>
	</g>
	<g>
		<path class="st1" d="M35,69.6c-0.2,0-0.4-0.2-0.4-0.4v-27c0-0.2,0.2-0.4,0.4-0.4s0.4,0.2,0.4,0.4v27C35.4,69.4,35.2,69.6,35,69.6z    "/>
	</g>
	<g>
		<path class="st1" d="M39.3,69.6c-0.2,0-0.4-0.2-0.4-0.4v-27c0-0.2,0.2-0.4,0.4-0.4s0.4,0.2,0.4,0.4v27    C39.7,69.4,39.5,69.6,39.3,69.6z"/>
	</g>
	<g>
		<path class="st1" d="M43.6,69.6c-0.2,0-0.4-0.2-0.4-0.4v-27c0-0.2,0.2-0.4,0.4-0.4S44,42,44,42.2v27C44,69.4,43.8,69.6,43.6,69.6z    "/>
	</g>
	<g>
		<path class="st1" d="M47.9,69.7c-0.2,0-0.4-0.2-0.4-0.4v-27c0-0.2,0.2-0.4,0.4-0.4s0.4,0.2,0.4,0.4v27    C48.3,69.5,48.2,69.7,47.9,69.7z"/>
	</g>
	<g>
		<path class="st1" d="M56.5,85.8c-0.2,0-0.4-0.2-0.4-0.4V52.7c0-0.2,0.2-0.4,0.4-0.4s0.4,0.2,0.4,0.4v32.6    C56.9,85.6,56.7,85.8,56.5,85.8z"/>
	</g>
	<g>
		<path class="st1" d="M60.8,85.8c-0.2,0-0.4-0.2-0.4-0.4V52.7c0-0.2,0.2-0.4,0.4-0.4s0.4,0.2,0.4,0.4v32.6    C61.2,85.6,61,85.8,60.8,85.8z"/>
	</g>
	<g>
		<path class="st1" d="M22.2,85.8c-0.2,0-0.4-0.2-0.4-0.4V60.9c0-0.2,0.2-0.4,0.4-0.4s0.4,0.2,0.4,0.4v24.5    C22.6,85.6,22.5,85.8,22.2,85.8z"/>
	</g>
	<g>
		<path class="st1" d="M26.6,85.8c-0.2,0-0.4-0.2-0.4-0.4V60.9c0-0.2,0.2-0.4,0.4-0.4s0.4,0.2,0.4,0.4v24.5    C27,85.6,26.8,85.8,26.6,85.8z"/>
	</g>
	<path class="st1" d="M88.2,88.4H65.9V49.2c0-0.4-0.4-0.8-0.8-0.8h-9.7c-0.4,0-0.8,0.4-0.8,0.8c0,0.4,0.4,0.8,0.8,0.8h8.9v38.4H52.6   V38.6c0-0.4-0.4-0.8-0.8-0.8H31.3c-0.4,0-0.8,0.4-0.8,0.8v49.8H18.3v-30h9.3c0.4,0,0.8-0.4,0.8-0.8c0-0.4-0.4-0.8-0.8-0.8H17.5   c-0.4,0-0.8,0.4-0.8,0.8v30.8H1.8c-0.4,0-0.8,0.4-0.8,0.8C1,89.6,1.4,90,1.8,90h15.6c0,0,0,0,0.1,0c0,0,0,0,0.1,0h70.7   c0.4,0,0.8-0.4,0.8-0.8C89,88.8,88.6,88.4,88.2,88.4z M32.1,39.4H51v49H32.1V39.4z"/>
	<g>
		<path class="st1" d="M20.6,56.7c-0.4,0-0.8-0.4-0.8-0.8v-2.4c0-0.4,0.4-0.8,0.8-0.8h7.1c0.4,0,0.8,0.4,0.8,0.8    c0,0.4-0.4,0.8-0.8,0.8h-6.3v1.6C21.3,56.3,21,56.7,20.6,56.7z"/>
	</g>
	<g>
		<path class="st1" d="M41.5,34.5c-0.4,0-0.8-0.4-0.8-0.8V29c0-0.4,0.4-0.8,0.8-0.8s0.8,0.4,0.8,0.8v4.7    C42.3,34.2,42,34.5,41.5,34.5z"/>
	</g>
	<g>
		<path class="st1" d="M73.1,88.2c-0.4,0-0.8-0.4-0.8-0.8V53.1h-3.4c-0.4,0-0.8-0.4-0.8-0.8c0-0.4,0.4-0.8,0.8-0.8h4.2    c0.4,0,0.8,0.4,0.8,0.8v35.1C73.9,87.8,73.6,88.2,73.1,88.2z"/>
	</g>
	<g>
		<path class="st1" d="M7.4,88.2c-0.4,0-0.8-0.4-0.8-0.8V62.8c0-0.4,0.4-0.8,0.8-0.8h6.4c0.4,0,0.8,0.4,0.8,0.8s-0.4,0.8-0.8,0.8    H8.2v23.8C8.2,87.8,7.8,88.2,7.4,88.2z"/>
	</g>
	<g>
		<path class="st1" d="M83.5,88.2c-0.4,0-0.8-0.4-0.8-0.8V63.6h-5.6c-0.4,0-0.8-0.4-0.8-0.8s0.4-0.8,0.8-0.8h6.4    c0.4,0,0.8,0.4,0.8,0.8v24.6C84.3,87.8,83.9,88.2,83.5,88.2z"/>
	</g>
</g>
</svg>